<svg width="70" height="70" viewBox="0 0 70 70" fill="none" xmlns="http://www.w3.org/2000/svg">
<g id="&#208;&#187;&#208;&#190;&#208;&#179;&#208;&#190;">
<g id="Group">
<path id="Vector" d="M43.657 11.1616C41.4312 11.4186 38.2812 13.3819 36.7172 15.4819C35.8148 16.6851 35.2843 17.8335 34.825 19.5616L34.5953 20.4257L34.6062 21.3444C34.6172 21.8476 34.6445 22.3179 34.6718 22.3944C34.7429 22.5749 34.8797 22.6022 35.8422 22.6077C36.6406 22.6132 36.6898 22.6077 37.3734 22.4054C39.2 21.8749 40.5398 21.0765 41.4914 19.9444C41.7211 19.6655 42.0656 19.2936 42.2461 19.1077C42.8476 18.5171 43.6187 17.2046 44.0453 16.0671C44.4718 14.9241 44.6632 13.8632 44.7179 12.3538L44.7507 11.3858L44.6086 11.2436C44.45 11.0851 44.3625 11.0796 43.657 11.1616Z" fill="#717171"/>
<path id="Vector_2" d="M43.1484 22.4655C42.0656 22.5202 39.1508 23.3296 37.0562 24.1499C35.7875 24.6476 35.7875 24.6476 35.5359 24.6913C35.0984 24.7624 34.0265 24.4507 32.1836 23.7069C31.2047 23.3186 30.1984 23.0233 28.7109 22.6843C28.0875 22.5476 27.0539 22.5311 26.6054 22.6569C26.425 22.7061 25.8562 22.821 25.3422 22.9085C24.2375 23.1054 23.614 23.2968 22.7828 23.7069C20.2726 24.9319 18.5609 26.6929 17.2047 29.4491C16.6031 30.6632 16.1601 31.8499 15.832 33.1132C15.3453 34.989 15.3343 38.5874 15.8101 40.7694C15.8648 41.0374 15.914 41.3546 15.914 41.4804C15.914 41.7429 15.9633 41.9397 16.4226 43.7499C16.8492 45.4233 16.8054 45.2866 17.6203 47.3319C18.7633 50.203 19.1242 50.8374 21.4593 54.0585C22.4164 55.3765 22.9031 55.978 23.6086 56.6944C24.3468 57.4491 24.9429 57.8866 25.7851 58.3022C26.7367 58.7671 27.1523 58.871 28.0273 58.8655C29.1484 58.8655 30.0508 58.6358 31.7679 57.914C32.8508 57.4601 32.9218 57.4382 34.8906 57.0335C35.4812 56.9077 36.0281 56.9186 36.8593 57.0554C37.1437 57.0991 37.5703 57.1647 37.8 57.1976C38.2648 57.2632 38.7351 57.4163 39.9492 57.903C41.4148 58.4936 42.4484 58.7561 43.5312 58.8218C45.1062 58.9202 46.6265 58.2202 48.2508 56.6616C49.9078 55.0593 51.4554 52.8663 53.0195 49.9077C53.4406 49.1093 54.1133 47.4741 54.2281 46.9819C54.2773 46.7851 54.3593 46.539 54.4195 46.4405C54.4742 46.3421 54.5234 46.2054 54.5234 46.1452C54.5234 45.9483 54.1242 45.6366 53.4187 45.2811C52.0898 44.5976 50.7828 43.4272 49.9023 42.1093C49.2734 41.1632 48.639 39.7468 48.4804 38.9101C48.2125 37.5319 48.1359 36.0226 48.289 34.9726C48.3273 34.6991 48.464 34.1249 48.5953 33.6874C49.1586 31.7897 49.5468 31.0296 50.4273 30.089C50.6953 29.8101 50.914 29.553 50.914 29.5311C50.914 29.4382 52.2539 28.3171 52.582 28.1366C52.7625 28.0327 52.9922 27.8741 53.0906 27.7757C53.3914 27.4804 53.3476 27.3655 52.5929 26.4796C51.5812 25.2929 50.307 24.3194 48.8086 23.5921C47.8734 23.1382 47.2281 22.914 46.3258 22.728C45.4015 22.5311 44.0234 22.4163 43.1484 22.4655Z" fill="#717171"/>
</g>
</g>
</svg>
